<svg width="430" height="419" viewBox="0 0 430 419" fill="none" xmlns="http://www.w3.org/2000/svg">
<!--<g filter="url(#filter0_i_536_518)">-->
<path d="M44.6862 93.7926L96.3759 123.636V183.322L44.6862 213.165L-7.00357 183.322V123.636L44.6862 93.7926Z" fill="#D9D9D9"/>
<!--</g>-->
<path d="M99.5 0L151.19 29.8431V89.5293L99.5 119.372L47.8103 89.5293V29.8431L99.5 0Z" fill="#D9D9D9"/>
<!--<g filter="url(#filter1_d_536_518)">-->
<path d="M154.314 93.7926L206.004 123.636V183.322L154.314 213.165L102.624 183.322V123.636L154.314 93.7926Z" fill="#129107" fill-opacity="0.2" shape-rendering="crispEdges"/>
<path d="M273.686 93.7926L325.376 123.636V183.322L273.686 213.165L221.996 183.322V123.636L273.686 93.7926Z" fill="#D9D9D9" fill-opacity="0.1"/>
<path d="M328.5 0L380.19 29.8431V89.5293L328.5 119.372L276.81 89.5293V29.8431L328.5 0Z" fill="#FFF1DC" fill-opacity="0.3"/>
<path d="M383.314 93.7926L435.004 123.636V183.322L383.314 213.165L331.624 183.322V123.636L383.314 93.7926Z" fill="#72B93A" fill-opacity="0.1"/>
<path d="M273.686 291.122L325.376 320.965V380.652L273.686 410.495L221.996 380.652V320.965L273.686 291.122Z" fill="#3A98B9" fill-opacity="0.1" shape-rendering="crispEdges"/>
<path d="M328.5 197.33L380.19 227.173V286.859L328.5 316.702L276.81 286.859V227.173L328.5 197.33Z" fill="#FFF1DC"/>
<path d="M383.314 291.122L435.004 320.965V380.652L383.314 410.495L331.624 380.652V320.965L383.314 291.122Z" fill="#D9D9D9" fill-opacity="0.4"/>
<path d="M44.6862 291.122L96.3759 320.965V380.652L44.6862 410.495L-7.00354 380.652V320.965L44.6862 291.122Z" fill="#7AB93A" fill-opacity="0.3" shape-rendering="crispEdges"/>
<path d="M99.5 197.33L151.19 227.173V286.859L99.5 316.702L47.8103 286.859V227.173L99.5 197.33Z" fill="#D9D9D9" fill-opacity="0.4"/>
<path d="M154.314 291.122L206.004 320.965V380.652L154.314 410.495L102.624 380.652V320.965L154.314 291.122Z" fill="#FFF1DC"/>
<defs>
</defs>
</svg>
