<svg xmlns="http://www.w3.org/2000/svg" xmlns:xlink="http://www.w3.org/1999/xlink" width="500" zoomAndPan="magnify" viewBox="0 0 375 374.999991" height="500" preserveAspectRatio="xMidYMid meet" version="1.0"><defs><clipPath id="e409d4318f"><path d="M 0 44.296875 L 375 44.296875 L 375 330.796875 L 0 330.796875 Z M 0 44.296875 " clip-rule="nonzero"/></clipPath></defs><path fill="#004fdb" d="M 81.960938 199.960938 L 71.4375 199.960938 C 71.476562 213.496094 71.4375 209.875 71.492188 220.195312 C 75.410156 220.175781 79.515625 220.160156 81.960938 220.160156 C 88.066406 220.160156 93.222656 215.53125 93.222656 210.058594 C 93.222656 204.589844 88.066406 199.960938 81.960938 199.960938 " fill-opacity="1" fill-rule="nonzero"/><path fill="#004fdb" d="M 283.582031 256.636719 C 297.421875 256.390625 303.621094 242.5625 303.621094 228.960938 C 303.621094 222.433594 302.148438 201.128906 283.128906 201.128906 L 271.871094 201.128906 C 271.933594 238.257812 271.878906 228.667969 271.96875 256.742188 C 276.285156 256.71875 280.898438 256.679688 283.582031 256.636719 " fill-opacity="1" fill-rule="nonzero"/><g clip-path="url(#e409d4318f)"><path fill="#004fdb" d="M 251.132812 265.917969 L 251.132812 190.785156 C 251.128906 185.0625 255.769531 180.410156 261.492188 180.410156 L 283.128906 180.410156 C 307.78125 180.410156 324.339844 199.921875 324.339844 228.960938 C 324.339844 256.585938 307.351562 276.9375 283.945312 277.347656 C 277.777344 277.457031 262.339844 277.515625 261.6875 277.519531 L 261.644531 277.519531 C 256.121094 277.519531 251.132812 273.261719 251.132812 265.917969 Z M 111.359375 261.476562 C 115.136719 265.773438 114.71875 272.316406 110.425781 276.09375 C 106.132812 279.875 99.589844 279.460938 95.808594 275.164062 L 71.378906 247.414062 L 71.378906 268.324219 C 71.378906 274.039062 66.742188 278.679688 61.019531 278.679688 C 55.300781 278.679688 50.660156 274.039062 50.660156 268.324219 L 50.660156 189.601562 C 50.660156 183.882812 55.300781 179.242188 61.019531 179.242188 C 61.027344 179.242188 61.03125 179.242188 61.035156 179.242188 C 61.039062 179.242188 61.042969 179.242188 61.042969 179.242188 L 81.960938 179.242188 C 99.589844 179.242188 113.9375 193.070312 113.9375 210.058594 C 113.9375 223.714844 104.671875 235.320312 91.882812 239.355469 Z M 175.78125 217.863281 C 181.507812 217.863281 186.136719 222.5 186.136719 228.222656 C 186.136719 233.945312 181.507812 238.578125 175.78125 238.578125 L 156.984375 238.578125 L 156.984375 268.03125 C 156.984375 273.753906 152.347656 278.390625 146.625 278.390625 C 140.90625 278.390625 136.265625 273.753906 136.265625 268.03125 L 136.265625 189.894531 C 136.265625 184.167969 140.90625 179.535156 146.625 179.535156 L 178.300781 179.535156 C 184.019531 179.535156 188.660156 184.167969 188.660156 189.894531 C 188.660156 195.613281 184.019531 200.25 178.300781 200.25 L 156.984375 200.25 L 156.984375 217.863281 Z M 364.28125 257.378906 C 364.28125 291.96875 336.144531 320.109375 301.554688 320.109375 L 21.074219 320.109375 C 15.351562 320.109375 10.71875 315.46875 10.71875 309.75 L 10.71875 148.460938 C 10.71875 142.742188 15.351562 138.101562 21.074219 138.101562 L 178.300781 138.101562 C 184.023438 138.101562 188.660156 142.742188 188.660156 148.460938 C 188.660156 154.175781 184.023438 158.816406 178.300781 158.816406 L 31.433594 158.816406 L 31.433594 299.394531 L 301.554688 299.394531 C 324.714844 299.394531 343.566406 280.546875 343.566406 257.378906 L 343.566406 158.816406 L 261.167969 158.816406 C 255.449219 158.816406 250.8125 154.175781 250.8125 148.460938 C 250.8125 142.742188 255.449219 138.101562 261.167969 138.101562 L 353.925781 138.101562 C 359.648438 138.101562 364.28125 142.742188 364.28125 148.460938 Z M 219.738281 117.054688 C 211.351562 117.054688 203.464844 120.320312 197.535156 126.257812 C 191.0625 132.722656 179.847656 128.183594 179.847656 118.929688 C 179.847656 115.960938 181.09375 113.28125 183.097656 111.390625 C 192.917969 101.683594 205.917969 96.335938 219.738281 96.335938 C 233.664062 96.335938 246.75 101.753906 256.589844 111.609375 C 260.636719 115.65625 260.628906 122.21875 256.582031 126.257812 C 252.535156 130.304688 245.976562 130.296875 241.9375 126.25 C 236.011719 120.320312 228.125 117.054688 219.738281 117.054688 Z M 230.09375 189.601562 L 230.09375 268.324219 C 230.09375 274.039062 225.453125 278.679688 219.738281 278.679688 C 214.007812 278.679688 209.378906 274.039062 209.378906 268.324219 L 209.378906 189.601562 C 209.378906 183.882812 214.007812 179.242188 219.738281 179.242188 C 225.453125 179.242188 230.09375 183.882812 230.09375 189.601562 Z M 219.738281 158.816406 C 214.007812 158.816406 209.378906 154.175781 209.378906 148.460938 C 209.378906 142.742188 214.007812 138.101562 219.738281 138.101562 C 225.453125 138.101562 230.09375 142.742188 230.09375 148.460938 C 230.09375 154.175781 225.453125 158.816406 219.738281 158.816406 Z M 168.234375 96.949219 C 164.191406 100.996094 157.628906 100.996094 153.582031 96.957031 C 149.535156 92.910156 149.535156 86.355469 153.578125 82.3125 C 171.246094 64.632812 194.738281 54.902344 219.738281 54.902344 C 244.726562 54.902344 268.21875 64.632812 285.886719 82.3125 C 289.929688 86.355469 289.921875 92.910156 285.875 96.957031 C 281.835938 100.996094 275.277344 100.996094 271.230469 96.949219 C 257.480469 83.195312 239.1875 75.621094 219.738281 75.621094 C 200.273438 75.621094 181.984375 83.195312 168.234375 96.949219 Z M 353.925781 127.492188 L 268.355469 127.492188 C 269.554688 124.835938 270.222656 121.949219 270.230469 118.945312 C 270.234375 114.207031 268.59375 109.761719 265.71875 106.085938 C 269.386719 108.957031 273.828125 110.59375 278.558594 110.59375 C 284.15625 110.59375 289.425781 108.414062 293.375 104.457031 C 301.554688 96.28125 301.558594 82.980469 293.382812 74.804688 C 273.714844 55.128906 247.558594 44.292969 219.738281 44.292969 C 191.910156 44.292969 165.75 55.128906 146.078125 74.8125 C 137.910156 82.988281 137.910156 96.28125 146.085938 104.457031 C 150.046875 108.421875 155.308594 110.59375 160.90625 110.59375 C 165.621094 110.59375 170.050781 108.972656 173.710938 106.113281 C 170.886719 109.773438 169.238281 114.261719 169.238281 118.929688 C 169.238281 121.992188 169.933594 124.867188 171.121094 127.492188 L 21.074219 127.492188 C 9.515625 127.492188 0.109375 136.898438 0.109375 148.460938 L 0.109375 309.75 C 0.109375 321.3125 9.515625 330.71875 21.074219 330.71875 L 301.554688 330.71875 C 341.992188 330.71875 374.890625 297.820312 374.890625 257.378906 L 374.890625 148.460938 C 374.890625 136.898438 365.484375 127.492188 353.925781 127.492188 " fill-opacity="1" fill-rule="nonzero"/></g></svg>